<?xml version="1.0" encoding="UTF-8" standalone="no"?>
<!DOCTYPE svg PUBLIC "-//W3C//DTD SVG 1.1//EN"
 "http://www.w3.org/Graphics/SVG/1.1/DTD/svg11.dtd">
<!-- Generated by graphviz version 7.0.5 (20221223.1930)
 -->
<!-- Title: G Pages: 1 -->
<svg width="368pt" height="332pt"
 viewBox="0.00 0.00 368.39 332.00" xmlns="http://www.w3.org/2000/svg" xmlns:xlink="http://www.w3.org/1999/xlink">
<g id="graph0" class="graph" transform="scale(1 1) rotate(0) translate(4 328)">
<title>G</title>
<polygon fill="white" stroke="none" points="-4,4 -4,-328 364.39,-328 364.39,4 -4,4"/>
<!-- python3 -->
<g id="node1" class="node">
<title>python3</title>
<ellipse fill="none" stroke="black" cx="156.4" cy="-306" rx="48.99" ry="18"/>
<text text-anchor="middle" x="156.4" y="-302.3" font-family="Times,serif" font-size="14.00">python3</text>
</g>
<!-- expat -->
<g id="node2" class="node">
<title>expat</title>
<ellipse fill="none" stroke="black" cx="36.4" cy="-162" rx="36.29" ry="18"/>
<text text-anchor="middle" x="36.4" y="-158.3" font-family="Times,serif" font-size="14.00">expat</text>
</g>
<!-- python3&#45;&gt;expat -->
<g id="edge1" class="edge">
<title>python3&#45;&gt;expat</title>
<path fill="none" stroke="black" d="M109.6,-300.29C78.38,-294.45 39.51,-281.35 19.4,-252 6.91,-233.78 13.24,-208.76 21.5,-189.89"/>
<polygon fill="black" stroke="black" points="24.62,-191.48 25.8,-180.96 18.31,-188.45 24.62,-191.48"/>
</g>
<!-- libffi -->
<g id="node3" class="node">
<title>libffi</title>
<ellipse fill="none" stroke="black" cx="60.4" cy="-234" rx="31.7" ry="18"/>
<text text-anchor="middle" x="60.4" y="-230.3" font-family="Times,serif" font-size="14.00">libffi</text>
</g>
<!-- python3&#45;&gt;libffi -->
<g id="edge2" class="edge">
<title>python3&#45;&gt;libffi</title>
<path fill="none" stroke="black" d="M135.09,-289.46C121.41,-279.49 103.48,-266.41 88.62,-255.58"/>
<polygon fill="black" stroke="black" points="90.73,-252.79 80.59,-249.72 86.61,-258.44 90.73,-252.79"/>
</g>
<!-- openssl -->
<g id="node4" class="node">
<title>openssl</title>
<ellipse fill="none" stroke="black" cx="156.4" cy="-234" rx="46.29" ry="18"/>
<text text-anchor="middle" x="156.4" y="-230.3" font-family="Times,serif" font-size="14.00">openssl</text>
</g>
<!-- python3&#45;&gt;openssl -->
<g id="edge3" class="edge">
<title>python3&#45;&gt;openssl</title>
<path fill="none" stroke="black" d="M156.4,-287.7C156.4,-280.41 156.4,-271.73 156.4,-263.54"/>
<polygon fill="black" stroke="black" points="159.9,-263.62 156.4,-253.62 152.9,-263.62 159.9,-263.62"/>
</g>
<!-- sqlite -->
<g id="node5" class="node">
<title>sqlite</title>
<ellipse fill="none" stroke="black" cx="257.4" cy="-234" rx="36.29" ry="18"/>
<text text-anchor="middle" x="257.4" y="-230.3" font-family="Times,serif" font-size="14.00">sqlite</text>
</g>
<!-- python3&#45;&gt;sqlite -->
<g id="edge4" class="edge">
<title>python3&#45;&gt;sqlite</title>
<path fill="none" stroke="black" d="M178.31,-289.81C192.73,-279.82 211.77,-266.62 227.56,-255.68"/>
<polygon fill="black" stroke="black" points="229.43,-258.64 235.66,-250.07 225.44,-252.89 229.43,-258.64"/>
</g>
<!-- libbz2 -->
<g id="node6" class="node">
<title>libbz2</title>
<ellipse fill="none" stroke="black" cx="321.4" cy="-162" rx="38.99" ry="18"/>
<text text-anchor="middle" x="321.4" y="-158.3" font-family="Times,serif" font-size="14.00">libbz2</text>
</g>
<!-- python3&#45;&gt;libbz2 -->
<g id="edge5" class="edge">
<title>python3&#45;&gt;libbz2</title>
<path fill="none" stroke="black" d="M202.85,-299.95C235.38,-293.93 277.34,-280.78 302.4,-252 316.76,-235.5 321.15,-210.81 322.14,-191.62"/>
<polygon fill="black" stroke="black" points="325.64,-191.81 322.35,-181.74 318.64,-191.66 325.64,-191.81"/>
</g>
<!-- cmake -->
<g id="node9" class="node">
<title>cmake</title>
<ellipse fill="none" stroke="black" cx="237.4" cy="-90" rx="40.09" ry="18"/>
<text text-anchor="middle" x="237.4" y="-86.3" font-family="Times,serif" font-size="14.00">cmake</text>
</g>
<!-- expat&#45;&gt;cmake -->
<g id="edge8" class="edge">
<title>expat&#45;&gt;cmake</title>
<path fill="none" stroke="black" d="M65.62,-150.82C99.96,-138.86 157.16,-118.94 196.04,-105.4"/>
<polygon fill="black" stroke="black" points="196.76,-108.86 205.05,-102.26 194.46,-102.25 196.76,-108.86"/>
</g>
<!-- perl -->
<g id="node8" class="node">
<title>perl</title>
<ellipse fill="none" stroke="black" cx="156.4" cy="-162" rx="29.5" ry="18"/>
<text text-anchor="middle" x="156.4" y="-158.3" font-family="Times,serif" font-size="14.00">perl</text>
</g>
<!-- openssl&#45;&gt;perl -->
<g id="edge7" class="edge">
<title>openssl&#45;&gt;perl</title>
<path fill="none" stroke="black" d="M156.4,-215.7C156.4,-208.41 156.4,-199.73 156.4,-191.54"/>
<polygon fill="black" stroke="black" points="159.9,-191.62 156.4,-181.62 152.9,-191.62 159.9,-191.62"/>
</g>
<!-- zlib -->
<g id="node7" class="node">
<title>zlib</title>
<ellipse fill="none" stroke="black" cx="237.4" cy="-162" rx="27.1" ry="18"/>
<text text-anchor="middle" x="237.4" y="-158.3" font-family="Times,serif" font-size="14.00">zlib</text>
</g>
<!-- sqlite&#45;&gt;zlib -->
<g id="edge6" class="edge">
<title>sqlite&#45;&gt;zlib</title>
<path fill="none" stroke="black" d="M252.45,-215.7C250.32,-208.24 247.77,-199.32 245.39,-190.97"/>
<polygon fill="black" stroke="black" points="248.81,-190.21 242.7,-181.56 242.08,-192.14 248.81,-190.21"/>
</g>
<!-- libbz2&#45;&gt;cmake -->
<g id="edge10" class="edge">
<title>libbz2&#45;&gt;cmake</title>
<path fill="none" stroke="black" d="M303.17,-145.81C291.91,-136.43 277.25,-124.21 264.63,-113.69"/>
<polygon fill="black" stroke="black" points="266.96,-111.08 257.04,-107.37 262.48,-116.46 266.96,-111.08"/>
</g>
<!-- zlib&#45;&gt;cmake -->
<g id="edge9" class="edge">
<title>zlib&#45;&gt;cmake</title>
<path fill="none" stroke="black" d="M237.4,-143.7C237.4,-136.41 237.4,-127.73 237.4,-119.54"/>
<polygon fill="black" stroke="black" points="240.9,-119.62 237.4,-109.62 233.9,-119.62 240.9,-119.62"/>
</g>
<!-- gmake -->
<g id="node10" class="node">
<title>gmake</title>
<ellipse fill="none" stroke="black" cx="237.4" cy="-18" rx="41.69" ry="18"/>
<text text-anchor="middle" x="237.4" y="-14.3" font-family="Times,serif" font-size="14.00">gmake</text>
</g>
<!-- cmake&#45;&gt;gmake -->
<g id="edge11" class="edge">
<title>cmake&#45;&gt;gmake</title>
<path fill="none" stroke="black" d="M237.4,-71.7C237.4,-64.41 237.4,-55.73 237.4,-47.54"/>
<polygon fill="black" stroke="black" points="240.9,-47.62 237.4,-37.62 233.9,-47.62 240.9,-47.62"/>
</g>
</g>
</svg>
